<svg width="205" height="195" viewBox="0 0 205 195" fill="none" xmlns="http://www.w3.org/2000/svg">
<path d="M99.7476 2.34719C100.792 -0.0614458 104.208 -0.0614422 105.252 2.3472L132.074 64.2002C132.509 65.2026 133.454 65.8895 134.542 65.9931L201.656 72.3883C204.269 72.6374 205.325 75.886 203.357 77.6236L152.819 122.246C152 122.969 151.639 124.081 151.877 125.147L166.534 190.953C167.105 193.515 164.341 195.523 162.081 194.188L104.025 159.913C103.084 159.358 101.916 159.358 100.975 159.913L42.9194 194.188C40.6587 195.523 37.8953 193.515 38.466 190.953L53.1232 125.147C53.3607 124.081 52.9996 122.969 52.1806 122.246L1.64321 77.6236C-0.324781 75.886 0.730758 72.6374 3.34427 72.3883L70.4583 65.9931C71.546 65.8895 72.4913 65.2026 72.9261 64.2002L99.7476 2.34719Z" fill="#FF0000"/>
</svg>
